HIERARCHY
ROOT Hips
{
    OFFSET 0.000000 0.000000 0.000000
    CHANNELS 6 Xposition Yposition Zposition Zrotation Xrotation Yrotation
    JOINT Spine
    {
        OFFSET -0.000000 7.305680 0.000000
        CHANNELS 3 Zrotation Xrotation Yrotation
        JOINT Spine1
        {
            OFFSET -0.000000 20.356600 0.000000
            CHANNELS 3 Zrotation Xrotation Yrotation
            JOINT Neck
            {
                OFFSET -0.000000 22.138500 0.000000
                CHANNELS 3 Zrotation Xrotation Yrotation
                JOINT Head
                {
                    OFFSET -0.000000 13.809501 1.781870
                    CHANNELS 3 Zrotation Xrotation Yrotation
                    End Site
                    {
                        OFFSET -0.000000 17.818779 0.000000
                    }
                }
            }
            JOINT LeftShoulder
            {
                OFFSET 3.599130 17.990000 0.023591
                CHANNELS 3 Zrotation Xrotation Yrotation
                JOINT LeftArm
                {
                    OFFSET 12.560999 0.000000 0.000000
                    CHANNELS 3 Zrotation Xrotation Yrotation
                    JOINT LeftForeArm
                    {
                        OFFSET 22.903299 0.000000 0.000000
                        CHANNELS 3 Zrotation Xrotation Yrotation
                        JOINT LeftHand
                        {
                            OFFSET 21.865299 0.000000 0.000000
                            CHANNELS 3 Zrotation Xrotation Yrotation
                            JOINT LeftHandThumb1
                            {
                                OFFSET 1.853710 -2.106480 2.949080
                                CHANNELS 3 Zrotation Xrotation Yrotation
                                JOINT LeftHandThumb2
                                {
                                    OFFSET 2.049150 0.000000 1.336400
                                    CHANNELS 3 Zrotation Xrotation Yrotation
                                    JOINT LeftHandThumb3
                                    {
                                        OFFSET 2.672810 0.000000 0.000000
                                        CHANNELS 3 Zrotation Xrotation Yrotation
                                        End Site
                                        {
                                            OFFSET 2.381310 0.000000 0.000000
                                        }
                                    }
                                }
                            }
                            JOINT LeftHandIndex1
                            {
                                OFFSET 7.583340 0.000000 2.949080
                                CHANNELS 3 Zrotation Xrotation Yrotation
                                JOINT LeftHandIndex2
                                {
                                    OFFSET 4.454680 0.000000 0.000000
                                    CHANNELS 3 Zrotation Xrotation Yrotation
                                    JOINT LeftHandIndex3
                                    {
                                        OFFSET 2.227340 0.000000 0.000000
                                        CHANNELS 3 Zrotation Xrotation Yrotation
                                        End Site
                                        {
                                            OFFSET 1.984424 0.000000 0.000000
                                        }
                                    }
                                }
                            }
                            JOINT LeftHandMiddle1
                            {
                                OFFSET 7.583340 0.000000 0.977409
                                CHANNELS 3 Zrotation Xrotation Yrotation
                                JOINT LeftHandMiddle2
                                {
                                    OFFSET 4.900150 0.000000 0.000000
                                    CHANNELS 3 Zrotation Xrotation Yrotation
                                    JOINT LeftHandMiddle3
                                    {
                                        OFFSET 2.672810 0.000000 0.000000
                                        CHANNELS 3 Zrotation Xrotation Yrotation
                                        End Site
                                        {
                                            OFFSET 2.381310 0.000000 0.000000
                                        }
                                    }
                                }
                            }
                            JOINT LeftHandRing1
                            {
                                OFFSET 7.162050 0.000000 -0.977409
                                CHANNELS 3 Zrotation Xrotation Yrotation
                                JOINT LeftHandRing2
                                {
                                    OFFSET 4.454680 0.000000 0.000000
                                    CHANNELS 3 Zrotation Xrotation Yrotation
                                    JOINT LeftHandRing3
                                    {
                                        OFFSET 2.227340 0.000000 0.000000
                                        CHANNELS 3 Zrotation Xrotation Yrotation
                                        End Site
                                        {
                                            OFFSET 1.984424 0.000000 0.000000
                                        }
                                    }
                                }
                            }
                            JOINT LeftHandPinky1
                            {
                                OFFSET 6.740750 0.000000 -2.949080
                                CHANNELS 3 Zrotation Xrotation Yrotation
                                JOINT LeftHandPinky2
                                {
                                    OFFSET 3.563750 0.000000 0.000000
                                    CHANNELS 3 Zrotation Xrotation Yrotation
                                    JOINT LeftHandPinky3
                                    {
                                        OFFSET 1.781870 0.000000 0.000000
                                        CHANNELS 3 Zrotation Xrotation Yrotation
                                        End Site
                                        {
                                            OFFSET 1.587538 0.000000 0.000000
                                        }
                                    }
                                }
                            }
                        }
                    }
                }
            }
            JOINT RightShoulder
            {
                OFFSET -3.506990 17.990000 0.023591
                CHANNELS 3 Zrotation Xrotation Yrotation
                JOINT RightArm
                {
                    OFFSET -12.560999 0.000000 0.000000
                    CHANNELS 3 Zrotation Xrotation Yrotation
                    JOINT RightForeArm
                    {
                        OFFSET -22.903299 0.000000 0.000000
                        CHANNELS 3 Zrotation Xrotation Yrotation
                        JOINT RightHand
                        {
                            OFFSET -21.865299 0.000000 0.000000
                            CHANNELS 3 Zrotation Xrotation Yrotation
                            JOINT RightHandThumb1
                            {
                                OFFSET -1.853710 -2.106480 2.949080
                                CHANNELS 3 Zrotation Xrotation Yrotation
                                JOINT RightHandThumb2
                                {
                                    OFFSET -2.049150 0.000000 1.336400
                                    CHANNELS 3 Zrotation Xrotation Yrotation
                                    JOINT RightHandThumb3
                                    {
                                        OFFSET -2.672810 0.000000 0.000000
                                        CHANNELS 3 Zrotation Xrotation Yrotation
                                        End Site
                                        {
                                            OFFSET -2.381310 0.000000 0.000000
                                        }
                                    }
                                }
                            }
                            JOINT RightHandIndex1
                            {
                                OFFSET -7.583340 0.000000 2.949080
                                CHANNELS 3 Zrotation Xrotation Yrotation
                                JOINT RightHandIndex2
                                {
                                    OFFSET -4.454680 0.000000 0.000000
                                    CHANNELS 3 Zrotation Xrotation Yrotation
                                    JOINT RightHandIndex3
                                    {
                                        OFFSET -2.227340 0.000000 0.000000
                                        CHANNELS 3 Zrotation Xrotation Yrotation
                                        End Site
                                        {
                                            OFFSET -1.984424 0.000000 0.000000
                                        }
                                    }
                                }
                            }
                            JOINT RightHandMiddle1
                            {
                                OFFSET -7.583340 0.000000 0.977409
                                CHANNELS 3 Zrotation Xrotation Yrotation
                                JOINT RightHandMiddle2
                                {
                                    OFFSET -4.900150 0.000000 0.000000
                                    CHANNELS 3 Zrotation Xrotation Yrotation
                                    JOINT RightHandMiddle3
                                    {
                                        OFFSET -2.672810 0.000000 0.000000
                                        CHANNELS 3 Zrotation Xrotation Yrotation
                                        End Site
                                        {
                                            OFFSET -2.381310 0.000000 0.000000
                                        }
                                    }
                                }
                            }
                            JOINT RightHandRing1
                            {
                                OFFSET -7.162050 0.000000 -0.977409
                                CHANNELS 3 Zrotation Xrotation Yrotation
                                JOINT RightHandRing2
                                {
                                    OFFSET -4.454680 0.000000 0.000000
                                    CHANNELS 3 Zrotation Xrotation Yrotation
                                    JOINT RightHandRing3
                                    {
                                        OFFSET -2.227340 0.000000 0.000000
                                        CHANNELS 3 Zrotation Xrotation Yrotation
                                        End Site
                                        {
                                            OFFSET -1.984424 0.000000 0.000000
                                        }
                                    }
                                }
                            }
                            JOINT RightHandPinky1
                            {
                                OFFSET -6.740750 0.000000 -2.949080
                                CHANNELS 3 Zrotation Xrotation Yrotation
                                JOINT RightHandPinky2
                                {
                                    OFFSET -3.563750 0.000000 0.000000
                                    CHANNELS 3 Zrotation Xrotation Yrotation
                                    JOINT RightHandPinky3
                                    {
                                        OFFSET -1.781870 0.000000 0.000000
                                        CHANNELS 3 Zrotation Xrotation Yrotation
                                        End Site
                                        {
                                            OFFSET -1.587538 0.000000 0.000000
                                        }
                                    }
                                }
                            }
                        }
                    }
                }
            }
        }
    }
    JOINT LeftUpLeg
    {
        OFFSET 8.909360 0.000000 0.000000
        CHANNELS 3 Zrotation Xrotation Yrotation
        JOINT LeftLeg
        {
            OFFSET -0.000000 -38.765602 0.000000
            CHANNELS 3 Zrotation Xrotation Yrotation
            JOINT LeftFoot
            {
                OFFSET -0.000000 -35.245003 0.000000
                CHANNELS 3 Zrotation Xrotation Yrotation
                JOINT LeftToeBase
                {
                    OFFSET -0.000000 -5.791090 13.364000
                    CHANNELS 3 Zrotation Xrotation Yrotation
                    End Site
                    {
                        OFFSET -0.000000 0.000000 3.563756
                    }
                }
            }
        }
    }
    JOINT RightUpLeg
    {
        OFFSET -8.909360 0.000000 0.000000
        CHANNELS 3 Zrotation Xrotation Yrotation
        JOINT RightLeg
        {
            OFFSET -0.000000 -38.765602 0.000000
            CHANNELS 3 Zrotation Xrotation Yrotation
            JOINT RightFoot
            {
                OFFSET -0.000000 -35.245003 0.000000
                CHANNELS 3 Zrotation Xrotation Yrotation
                JOINT RightToeBase
                {
                    OFFSET -0.000000 -5.791090 13.364000
                    CHANNELS 3 Zrotation Xrotation Yrotation
                    End Site
                    {
                        OFFSET -0.000000 0.000000 3.563756
                    }
                }
            }
        }
    }
}
MOTION
Frames:    5
Frame Time:    0.033333
-16.214394    74.382629    94.058128    -13.795454    -12.389872    57.860657    -3.777849    4.405929    -12.674819    28.770851    11.686321    -7.292264    18.566610    -11.170419    -23.682608    -1.463732    -18.271465    -23.917625    14.466759    0.614819    -19.518431    -91.262665    59.096130    2.699925    30.653202    32.612286    -49.125378    29.744125    -37.518929    -27.797340    -5.763132    12.342246    10.091569    -0.000000    0.000000    12.459378    -0.000000    0.000000    24.918756    45.000004    0.000000    -0.000000    0.000000    0.000000    0.000000    0.000000    0.000000    0.000000    22.786089    -0.002705    6.267721    -15.071425    0.000000    0.000000    -7.535713    0.000000    0.000000    0.692379    -2.370756    12.072539    -30.142851    0.000000    0.000000    -15.071425    0.000000    0.000000    -21.822577    -6.896316    16.691944    -45.670982    0.000000    0.000000    -22.835491    0.000000    0.000000    -8.790037    13.997117    -1.209055    76.963882    42.613922    -31.221659    -89.857285    -2.747568    56.449589    -12.728447    -44.789165    47.282742    7.781385    3.552681    -0.938618    0.000000    0.000000    -1.916579    0.000000    0.000000    -3.833158    -18.131561    0.000000    0.000000    0.000000    0.000000    0.000000    0.000000    0.000000    0.000000    -3.173182    -1.736359    -7.825231    18.584906    0.000000    -0.000000    9.292455    0.000000    -0.000000    11.458139    -5.415395    -14.960427    37.169811    0.000000    -0.000000    18.584908    0.000000    -0.000000    26.109682    -10.937449    -21.163225    56.317894    0.000000    -0.000000    28.158947    0.000000    -0.000000    17.616913    -33.120365    11.710547    -1.507085    56.575241    8.075837    1.664861    -29.371313    -7.235032    0.260552    -4.593444    -1.320628    -0.044666    -15.545201    7.487737    4.784506    54.435829    -15.761037    3.903155    -1.373177    -0.011655    -0.215691    -4.234727    -0.101465    
-16.045725    75.047318    93.613907    -15.885666    -10.148522    56.371719    -4.635731    4.261653    -14.971817    31.497513    9.278500    -7.679288    15.439569    -11.747160    -21.409277    -3.036236    -16.649755    -21.775024    14.188094    2.684468    -18.602873    -95.709412    58.106495    5.645633    27.317062    29.286631    -46.349163    23.797062    -37.952690    -30.693052    -5.802341    12.425992    10.182232    -0.000000    0.000000    12.658311    -0.000000    0.000000    25.316626    45.000004    0.000000    -0.000000    0.000000    0.000000    0.000000    0.000000    0.000000    0.000000    22.809471    0.002042    6.321922    -15.029844    0.000000    0.000000    -7.514921    0.000000    0.000000    0.740708    -2.379635    12.179742    -30.059683    0.000000    0.000000    -15.029844    0.000000    0.000000    -21.744045    -6.936679    16.846823    -45.544983    0.000000    0.000000    -22.772491    0.000000    0.000000    -7.939437    13.709477    -3.462329    73.362427    40.678047    -29.699425    -91.000069    -8.986508    57.337723    -6.778749    -39.999977    49.029259    9.340998    3.390351    0.483588    0.000000    0.000000    -0.483675    0.000000    0.000000    -0.967349    -14.338637    0.000000    0.000000    0.000000    0.000000    0.000000    0.000000    0.000000    0.000000    0.143590    -2.047091    -7.463002    20.127323    0.000000    -0.000000    10.063660    0.000000    -0.000000    14.292821    -5.877381    -14.202907    40.254642    0.000000    -0.000000    20.127321    0.000000    -0.000000    28.477579    -11.398992    -20.019096    60.991890    0.000000    -0.000000    30.495941    0.000000    -0.000000    17.891188    -34.174252    14.201238    -2.218663    53.906185    10.836645    0.523644    -28.411989    -10.347525    0.285751    -4.648988    -1.398006    1.162837    -13.092445    7.035046    7.295031    51.144840    -20.172848    4.578841    -3.431786    0.118743    -0.163543    -4.206132    -0.183275    
-15.725260    75.805344    93.108017    -17.715132    -7.249826    53.605461    -5.287570    3.476163    -16.781397    33.239079    7.179148    -7.798779    12.151763    -12.028916    -18.800640    -4.339664    -14.599641    -19.149824    13.883630    4.728239    -17.403708    -98.660019    57.006481    8.237064    25.407169    25.991499    -45.495518    17.039331    -38.267784    -33.488785    -6.077951    12.656659    10.222469    -0.000000    0.000000    12.891525    -0.000000    0.000000    25.783051    45.000004    0.000000    -0.000000    0.000000    0.000000    0.000000    0.000000    0.000000    0.000000    22.667265    -0.036561    6.745087    -15.369870    0.000000    0.000000    -7.684933    0.000000    0.000000    0.477418    -2.628161    12.974758    -30.739738    0.000000    0.000000    -15.369870    0.000000    0.000000    -22.098021    -7.539454    17.908781    -46.575352    0.000000    0.000000    -23.287680    0.000000    0.000000    -7.210445    12.870965    -5.319153    70.404556    39.678997    -28.532417    -91.874352    -14.261762    58.595432    -3.200805    -35.124313    48.493797    11.319272    3.203601    2.362744    0.000000    0.000000    0.000000    0.000000    0.000000    0.000000    -9.912962    0.000000    0.000000    0.000000    0.000000    0.000000    0.000000    0.000000    0.000000    3.647865    -2.296210    -7.114108    21.179695    0.000000    -0.000000    10.589850    0.000000    -0.000000    16.877422    -6.179014    -13.518785    42.359390    0.000000    -0.000000    21.179695    0.000000    -0.000000    30.138403    -11.580541    -19.073812    64.180901    0.000000    -0.000000    32.090450    0.000000    -0.000000    17.762217    -34.721355    16.474342    -3.404873    50.785095    14.212079    -0.188969    -27.359629    -12.175525    0.309687    -4.646248    -1.462423    2.003872    -11.617562    6.082377    8.850821    47.999840    -22.700705    5.709952    -4.593853    0.902014    -0.149990    -4.072960    -0.190550    
-15.220986    76.656441    92.594666    -19.066452    -3.997670    49.285419    -5.453039    2.208985    -17.766766    33.848492    5.420266    -7.610719    8.825875    -12.220457    -15.780807    -5.439023    -12.151784    -16.005642    13.464729    6.595549    -15.937505    -99.904251    55.135433    10.371380    25.273283    23.544479    -46.640293    10.122170    -37.492092    -36.013092    -6.547315    12.887969    10.019073    -0.000000    0.000000    12.940577    -0.000000    0.000000    25.881153    44.268997    0.000000    -0.000000    0.000000    0.000000    0.000000    0.000000    0.000000    0.000000    21.823341    -0.178068    7.501085    -16.195896    0.000000    0.000000    -8.097948    0.000000    0.000000    -0.431199    -3.198543    14.373237    -32.391788    0.000000    0.000000    -16.195896    0.000000    0.000000    -23.008640    -8.772975    19.756428    -49.078465    0.000000    0.000000    -24.539232    0.000000    0.000000    -6.660025    12.175146    -6.729342    68.428459    39.859280    -27.705818    -92.439697    -18.279734    59.620754    -1.036543    -30.967028    47.232719    13.343183    3.031455    4.387103    0.000000    0.000000    0.000000    0.000000    0.000000    0.000000    -5.452658    0.000000    0.000000    0.000000    0.000000    0.000000    0.000000    0.000000    0.000000    7.076159    -2.509753    -6.803659    22.032356    0.000000    -0.000000    11.016176    0.000000    -0.000000    19.276672    -6.418798    -12.929067    44.064709    0.000000    -0.000000    22.032354    0.000000    -0.000000    31.494501    -11.685547    -18.293209    66.764709    0.000000    -0.000000    33.382351    0.000000    -0.000000    17.753700    -34.308147    18.869793    -5.269162    47.169327    18.540749    -0.625343    -26.349447    -13.190996    0.320219    -4.631537    -1.488512    2.701483    -11.035298    4.856206    9.549701    45.574310    -23.400234    6.873831    -5.117386    2.353497    -0.153189    -3.890770    -0.165189    
-14.474787    77.587692    92.173401    -19.528112    -0.803820    43.464157    -5.091239    0.972745    -17.968134    33.388611    3.917531    -7.179935    5.531338    -12.107431    -12.296098    -6.211550    -9.700037    -12.314789    12.714823    8.326879    -14.162847    -99.850113    52.735340    12.658409    27.528835    21.678394    -49.862312    5.336576    -35.560074    -37.016781    -7.421681    13.129397    9.305956    -0.000000    0.000000    12.557440    -0.000000    0.000000    25.114880    42.302628    0.000000    -0.000000    0.000000    0.000000    0.000000    0.000000    0.000000    0.000000    20.320580    -0.348490    8.083274    -16.664797    0.000000    0.000000    -8.332397    0.000000    0.000000    -1.425975    -3.686270    15.459052    -33.329586    0.000000    0.000000    -16.664795    0.000000    0.000000    -23.423527    -9.705790    21.263384    -50.499374    0.000000    0.000000    -25.249691    0.000000    0.000000    -6.307384    12.021984    -7.758721    66.992256    40.949959    -26.822937    -92.382950    -20.955542    60.589413    0.494673    -28.057009    46.036968    14.881084    2.897715    6.034612    0.000000    0.000000    0.000000    0.000000    0.000000    0.000000    -1.847374    0.000000    0.000000    0.000000    0.000000    0.000000    0.000000    0.000000    0.000000    9.949488    -2.675508    -6.504641    22.922783    0.000000    -0.000000    11.461394    0.000000    -0.000000    21.424383    -6.608332    -12.353454    45.845566    0.000000    -0.000000    22.922787    0.000000    -0.000000    32.913113    -11.774550    -17.498625    69.462982    0.000000    -0.000000    34.731499    0.000000    -0.000000    17.789455    -32.432541    22.054823    -6.887155    43.043552    22.772022    -0.821552    -25.331917    -13.876513    0.302548    -4.715481    -1.454588    3.267047    -10.595623    3.756743    10.013375    43.608040    -23.757137    8.568969    -4.963002    4.644165    -0.147225    -3.766569    -0.161190    
